<?xml version="1.0" encoding="UTF-8" standalone="no"?>
<!-- Created with Inkscape (http://www.inkscape.org/) -->

<svg
   xmlns:dc="http://purl.org/dc/elements/1.1/"
   xmlns:cc="http://creativecommons.org/ns#"
   xmlns:rdf="http://www.w3.org/1999/02/22-rdf-syntax-ns#"
   xmlns:svg="http://www.w3.org/2000/svg"
   xmlns="http://www.w3.org/2000/svg"
   xmlns:sodipodi="http://sodipodi.sourceforge.net/DTD/sodipodi-0.dtd"
   xmlns:inkscape="http://www.inkscape.org/namespaces/inkscape"
   width="12.100919mm"
   height="8.5859108mm"
   viewBox="0 0 12.100919 8.5859108"
   version="1.1"
   id="svg4612"
   inkscape:version="0.92.1 r15371"
   sodipodi:docname="Ethene_Orbitale.svg">
  <defs
     id="defs4606">
    <clipPath
       id="clipPath5335"
       clipPathUnits="userSpaceOnUse">
      <path
         style="clip-rule:evenodd"
         inkscape:connector-curvature="0"
         id="path5333"
         d="M 0,1.2207e-4 H 960 V 540.00012 H 0 Z" />
    </clipPath>
    <clipPath
       id="clipPath5345"
       clipPathUnits="userSpaceOnUse">
      <path
         style="clip-rule:evenodd"
         inkscape:connector-curvature="0"
         id="path5343"
         d="M 0,1.2207e-4 H 960 V 540.00012 H 0 Z" />
    </clipPath>
    <clipPath
       id="clipPath5355"
       clipPathUnits="userSpaceOnUse">
      <path
         style="clip-rule:evenodd"
         inkscape:connector-curvature="0"
         id="path5353"
         d="M 4.451e-6,1.2207e-4 H 960 V 540.00012 H 4.451e-6 Z" />
    </clipPath>
    <clipPath
       id="clipPath5365"
       clipPathUnits="userSpaceOnUse">
      <path
         style="clip-rule:evenodd"
         inkscape:connector-curvature="0"
         id="path5363"
         d="M 1.4305e-5,0 H 960.00001 V 540 H 1.4305e-5 Z" />
    </clipPath>
  </defs>
  <sodipodi:namedview
     id="base"
     pagecolor="#ffffff"
     bordercolor="#666666"
     borderopacity="1.0"
     inkscape:pageopacity="0.0"
     inkscape:pageshadow="2"
     inkscape:zoom="11.313709"
     inkscape:cx="-16.238043"
     inkscape:cy="43.82534"
     inkscape:document-units="mm"
     inkscape:current-layer="g5441"
     showgrid="true"
     fit-margin-top="1"
     fit-margin-left="1"
     fit-margin-right="1"
     fit-margin-bottom="1"
     inkscape:window-width="1920"
     inkscape:window-height="1017"
     inkscape:window-x="-8"
     inkscape:window-y="-8"
     inkscape:window-maximized="1">
    <inkscape:grid
       type="xygrid"
       id="grid5157"
       originx="-81.255635"
       originy="-173.63542" />
  </sodipodi:namedview>
  <metadata
     id="metadata4609">
    <rdf:RDF>
      <cc:Work
         rdf:about="">
        <dc:format>image/svg+xml</dc:format>
        <dc:type
           rdf:resource="http://purl.org/dc/dcmitype/StillImage" />
        <dc:title></dc:title>
      </cc:Work>
    </rdf:RDF>
  </metadata>
  <g
     inkscape:label="Ebene 1"
     inkscape:groupmode="layer"
     id="layer1"
     transform="translate(-81.25563,-114.77865)">
    <g
       id="g5441">
      <text
         id="text5161"
         y="119.74708"
         x="83.446724"
         style="font-style:normal;font-weight:normal;font-size:1.82562244px;line-height:1.25;font-family:sans-serif;letter-spacing:0px;word-spacing:0px;fill:#000000;fill-opacity:1;stroke:none;stroke-width:0.04564056"
         xml:space="preserve"><tspan
           style="stroke-width:0.04564056"
           y="119.74708"
           x="83.446724"
           id="tspan5159"
           sodipodi:role="line">C</tspan></text>
      <text
         id="text5161-1"
         y="119.74708"
         x="89.849472"
         style="font-style:normal;font-weight:normal;font-size:1.82562256px;line-height:1.25;font-family:sans-serif;letter-spacing:0px;word-spacing:0px;fill:#000000;fill-opacity:1;stroke:none;stroke-width:0.04564056"
         xml:space="preserve"><tspan
           style="stroke-width:0.04564056"
           y="119.74708"
           x="89.849472"
           id="tspan5159-4"
           sodipodi:role="line">C</tspan></text>
      <text
         id="text5161-1-5"
         y="115.75943"
         x="93.766258"
         style="font-style:normal;font-weight:normal;font-size:1.82562268px;line-height:1.25;font-family:sans-serif;letter-spacing:0px;word-spacing:0px;fill:#000000;fill-opacity:1;stroke:none;stroke-width:0.04564056"
         xml:space="preserve"><tspan
           style="stroke-width:0.04564056"
           y="115.75943"
           x="93.766258"
           id="tspan5159-4-8"
           sodipodi:role="line">H</tspan></text>
      <text
         id="text5161-1-5-4"
         y="123.72055"
         x="93.808777"
         style="font-style:normal;font-weight:normal;font-size:1.8256228px;line-height:1.25;font-family:sans-serif;letter-spacing:0px;word-spacing:0px;fill:#000000;fill-opacity:1;stroke:none;stroke-width:0.04564056"
         xml:space="preserve"><tspan
           style="stroke-width:0.04564056"
           y="123.72055"
           x="93.808777"
           id="tspan5159-4-8-2"
           sodipodi:role="line">H</tspan></text>
      <text
         id="text5161-1-5-3"
         y="123.68748"
         x="76.856544"
         style="font-style:normal;font-weight:normal;font-size:1.8256228px;line-height:1.25;font-family:sans-serif;letter-spacing:0px;word-spacing:0px;fill:#000000;fill-opacity:1;stroke:none;stroke-width:0.04564056"
         xml:space="preserve"><tspan
           style="stroke-width:0.04564056"
           y="123.68748"
           x="76.856544"
           id="tspan5159-4-8-9"
           sodipodi:role="line">H</tspan></text>
      <text
         id="text5161-1-5-0"
         y="117.11543"
         x="76.79039"
         style="font-style:normal;font-weight:normal;font-size:1.8256228px;line-height:1.25;font-family:sans-serif;letter-spacing:0px;word-spacing:0px;fill:#000000;fill-opacity:1;stroke:none;stroke-width:0.04564056"
         xml:space="preserve"><tspan
           style="stroke-width:0.04564056"
           y="117.11543"
           x="76.79039"
           id="tspan5159-4-8-6"
           sodipodi:role="line">H</tspan></text>
      <path
         style="fill:none;stroke:#326267;stroke-width:0.443;stroke-linecap:butt;stroke-linejoin:round;stroke-miterlimit:4;stroke-dasharray:none;stroke-opacity:1"
         d="m 66.145828,111.79165 0,0.26458 1.322917,3.43958 1.322917,-3.43958 v -0.26458"
         id="path5453"
         inkscape:connector-curvature="0"
         sodipodi:nodetypes="ccccc" />
      <path
         style="opacity:1;fill:#326267;fill-opacity:1;stroke:none;stroke-width:0.7676394;stroke-linecap:butt;stroke-linejoin:round;stroke-miterlimit:4;stroke-dasharray:none;stroke-opacity:1"
         id="path5455"
         sodipodi:type="arc"
         sodipodi:cx="67.466698"
         sodipodi:cy="-111.79316"
         sodipodi:rx="1.5475096"
         sodipodi:ry="1.4846734"
         sodipodi:start="0"
         sodipodi:end="3.1415927"
         sodipodi:open="true"
         d="m 69.014207,-111.79316 a 1.5475096,1.4846734 0 0 1 -0.773755,1.28577 1.5475096,1.4846734 0 0 1 -1.547509,0 1.5475096,1.4846734 0 0 1 -0.773755,-1.28577"
         transform="scale(1,-1)" />
    </g>
    <g
       transform="matrix(0.01890813,0,0,-0.02449846,80.615107,113.50558)"
       inkscape:label="OLEDS"
       id="g5327">
      <g
         id="g5329">
        <g
           clip-path="url(#clipPath5335)"
           id="g5331">
          <path
             inkscape:connector-curvature="0"
             id="path5337"
             style="fill:#f7f0df;fill-opacity:1;fill-rule:evenodd;stroke:none"
             d="M 0,6.1035e-5 H 960 V 540.00006 H 0 Z" />
        </g>
      </g>
      <g
         id="g5339">
        <g
           clip-path="url(#clipPath5345)"
           id="g5341">
          <path
             inkscape:connector-curvature="0"
             id="path5347"
             style="fill:#171312;fill-opacity:1;fill-rule:evenodd;stroke:none"
             d="m 0,540 h 55.851 l 0.125,-5.37 0.625,-4.75 0.874,-4.13 1.125,-3.62 1.249,-3.25 1.5,-2.88 1.499,-3 1.499,-3 1.25,-2.87 1.249,-3.25 1.25,-3.63 0.874,-4.12 0.5,-4.75 0.25,-5.38 -0.25,-5.37 -0.5,-4.75 -0.874,-4.13 -1.25,-3.62 -1.249,-3.25 -1.25,-2.88 -1.499,-3 -1.499,-3 -1.5,-2.87 -1.249,-3.25 -1.125,-3.63 -0.874,-4.12 -0.625,-4.75 -0.125,-5.38 0.125,-5.37 0.625,-4.75 0.874,-4.13 1.125,-3.62 1.249,-3.25 1.5,-2.88 1.499,-3 1.499,-3 1.25,-2.87 1.249,-3.25 1.25,-3.63 0.874,-4.12 0.5,-4.75 0.25,-5.38 -0.25,-5.37 -0.5,-4.75 -0.874,-4.13 -1.25,-3.62 -1.249,-3.25 -1.25,-2.88 -1.499,-3 -1.499,-3 -1.5,-2.87 -1.249,-3.25 -1.125,-3.63 -0.874,-4.12 -0.625,-4.75 -0.125,-5.38 0.125,-5.37 0.625,-4.75 0.874,-4.13 1.125,-3.62 1.249,-3.25 1.5,-2.88 1.499,-3 1.499,-3 1.25,-2.87 1.249,-3.25 1.25,-3.63 0.874,-4.12 0.5,-4.75 0.25,-5.25 -0.25,-5.5 -0.5,-4.75 -0.874,-4.13 -1.25,-3.62 -1.249,-3.25 -1.25,-2.88 -1.499,-3 -1.499,-3 -1.5,-2.87 -1.249,-3.25 -1.125,-3.63 -0.874,-4.12 -0.625,-4.75 -0.125,-5.38 0.125,-5.37 0.625,-4.75 0.874,-4.13 1.125,-3.62 1.249,-3.25 1.5,-2.88 2.998,-6 1.25,-2.87 1.249,-3.25 1.25,-3.63 0.874,-4.12 0.5,-4.75 0.25,-5.38 -0.25,-5.37 -0.5,-4.75 -0.874,-4.13 -1.25,-3.62 -1.249,-3.25 -1.25,-2.88 -1.499,-3 -1.499,-3 -1.5,-2.87 -1.249,-3.25 -1.125,-3.63 -0.874,-4.12 -0.625,-4.75 -0.125,-5.38 0.125,-5.37 0.625,-4.755 0.874,-4.125 1.125,-3.625 1.249,-3.25 1.5,-2.875 1.499,-3 1.499,-3 1.25,-2.875 1.249,-3.25 1.25,-3.625 0.874,-4.125 0.5,-4.75 L 69.72,54 69.47,48.625 68.97,43.875 68.096,39.75 66.846,36.125 65.597,32.875 64.347,30 62.848,27 61.349,24 59.849,21.125 58.6,17.875 57.475,14.25 56.601,10.125 55.976,5.3751 55.851,6.1035e-5 H 0 Z" />
        </g>
      </g>
      <g
         id="g5349">
        <g
           clip-path="url(#clipPath5355)"
           id="g5351">
          <path
             inkscape:connector-curvature="0"
             id="path5357"
             style="fill:#53ae6e;fill-opacity:1;fill-rule:evenodd;stroke:none"
             d="M 937.68,6.1035e-5 H 960 V 540.00006 h -22.32 z" />
        </g>
      </g>
      <g
         id="g5359">
        <g
           clip-path="url(#clipPath5365)"
           id="g5361">
          <text
             id="text5369"
             style="font-variant:normal;font-weight:normal;font-size:12px;font-family:'Gill Sans MT';-inkscape-font-specification:GillSansMT;writing-mode:lr-tb;fill:#595959;fill-opacity:1;fill-rule:nonzero;stroke:none"
             transform="matrix(1,0,0,-1,886.8,19.92)">
            <tspan
               id="tspan5367"
               y="0"
               x="0">6</tspan>
          </text>
        </g>
      </g>
      <path
         inkscape:connector-curvature="0"
         id="path5371"
         style="fill:#53ae6e;fill-opacity:1;fill-rule:evenodd;stroke:none"
         d="M 213.96,243 H 339 v 68.04 H 213.96 Z" />
      <path
         inkscape:connector-curvature="0"
         id="path5373"
         style="fill:#3b7f4f;fill-opacity:1;fill-rule:nonzero;stroke:none"
         d="M 213.96,311.04 H 339 V 243 H 213.96 Z m 0.96,-68.04 -0.96,0.96 H 339 L 338.04,243 v 68.04 L 339,310.08 H 213.96 l 0.96,0.96 z" />
      <path
         inkscape:connector-curvature="0"
         id="path5375"
         style="fill:#326267;fill-opacity:1;fill-rule:evenodd;stroke:none"
         d="M 408.96,243.96 H 518.04 V 312 H 408.96 Z" />
      <path
         inkscape:connector-curvature="0"
         id="path5377"
         style="fill:#3b7f4f;fill-opacity:1;fill-rule:nonzero;stroke:none"
         d="M 408.96,312 H 518.04 V 243.96 H 408.96 Z m 0.96,-68.04 -0.96,0.96 h 109.08 l -0.96,-0.96 V 312 l 0.96,-0.96 H 408.96 l 0.96,0.96 z" />
      <path
         inkscape:connector-curvature="0"
         id="path5379"
         style="fill:#c5c34a;fill-opacity:1;fill-rule:evenodd;stroke:none"
         d="M 614.04,218.04 H 774 v 67.92 H 614.04 Z" />
      <path
         inkscape:connector-curvature="0"
         id="path5381"
         style="fill:#3b7f4f;fill-opacity:1;fill-rule:nonzero;stroke:none"
         d="M 614.04,285.96 H 774 V 218.04 H 614.04 Z M 615,218.04 614.04,219 H 774 l -0.96,-0.96 v 67.92 L 774,285 H 614.04 l 0.96,0.96 z" />
      <path
         inkscape:connector-curvature="0"
         id="path5383"
         style="fill:#bf6546;fill-opacity:1;fill-rule:evenodd;stroke:none"
         d="M 213.96,77.04 H 369 v 81 H 213.96 Z" />
      <path
         inkscape:connector-curvature="0"
         id="path5385"
         style="fill:#3b7f4f;fill-opacity:1;fill-rule:nonzero;stroke:none"
         d="M 213.96,158.04 H 369 v -81 H 213.96 Z m 0.96,-81 -0.96,0.96 H 369 l -0.96,-0.96 v 81 L 369,157.08 H 213.96 l 0.96,0.96 z" />
      <path
         inkscape:connector-curvature="0"
         id="path5387"
         style="fill:#81b5a8;fill-opacity:1;fill-rule:evenodd;stroke:none"
         d="m 480,90 h 111 v 68.04 H 480 Z" />
      <path
         inkscape:connector-curvature="0"
         id="path5389"
         style="fill:#3b7f4f;fill-opacity:1;fill-rule:nonzero;stroke:none"
         d="M 480,158.04 H 591 V 90 H 480 Z M 480.96,90 480,90.96 H 591 L 590.04,90 v 68.04 L 591,157.08 H 480 l 0.96,0.96 z" />
    </g>
  </g>
</svg>
