<?xml version="1.0" encoding="UTF-8" standalone="no"?>
<!-- Created with Inkscape (http://www.inkscape.org/) -->

<svg
   xmlns:dc="http://purl.org/dc/elements/1.1/"
   xmlns:cc="http://creativecommons.org/ns#"
   xmlns:rdf="http://www.w3.org/1999/02/22-rdf-syntax-ns#"
   xmlns:svg="http://www.w3.org/2000/svg"
   xmlns="http://www.w3.org/2000/svg"
   xmlns:xlink="http://www.w3.org/1999/xlink"
   xmlns:sodipodi="http://sodipodi.sourceforge.net/DTD/sodipodi-0.dtd"
   xmlns:inkscape="http://www.inkscape.org/namespaces/inkscape"
   width="18.898813mm"
   height="100.96333mm"
   viewBox="0 0 13.229168 70.674323"
   version="1.1"
   id="svg8"
   inkscape:version="0.92.1 r15371"
   sodipodi:docname="laster.svg">
  <defs
     id="defs2">
    <linearGradient
       inkscape:collect="always"
       id="linearGradient4733">
      <stop
         style="stop-color:#e28394;stop-opacity:1;"
         offset="0"
         id="stop4729" />
      <stop
         style="stop-color:#e28394;stop-opacity:0;"
         offset="1"
         id="stop4731" />
    </linearGradient>
    <inkscape:perspective
       sodipodi:type="inkscape:persp3d"
       inkscape:vp_x="0 : 103.94998 : 1"
       inkscape:vp_y="0 : 699.99991 : 0"
       inkscape:vp_z="146.99998 : 103.94998 : 1"
       inkscape:persp3d-origin="73.499992 : 69.299991 : 1"
       id="perspective3715" />
    <clipPath
       id="clipPath3117">
      <path
         id="path3119"
         d="M -1016,-351 H 1660 V 1068 H -1016 Z"
         inkscape:connector-curvature="0" />
    </clipPath>
    <clipPath
       id="clipPath3099">
      <path
         id="path3101"
         d="M -1016,-351 H 1660 V 1068 H -1016 Z"
         inkscape:connector-curvature="0" />
    </clipPath>
    <clipPath
       id="clipPath3073">
      <path
         id="path3075"
         d="M -1021,-463 H 1794 V 1233 H -1021 Z"
         inkscape:connector-curvature="0" />
    </clipPath>
    <clipPath
       id="clipPath3053">
      <path
         id="path3055"
         d="M 57.6,38.016 H 414.72 V 304.128 H 57.6 Z"
         inkscape:connector-curvature="0" />
    </clipPath>
    <clipPath
       id="clipPath3043">
      <path
         id="path3045"
         d="M 57.6,38.016 H 414.72 V 304.128 H 57.6 Z"
         inkscape:connector-curvature="0" />
    </clipPath>
    <clipPath
       id="clipPath3033">
      <path
         id="path3035"
         d="M 57.6,38.016 H 414.72 V 304.128 H 57.6 Z"
         inkscape:connector-curvature="0" />
    </clipPath>
    <clipPath
       id="clipPath3023">
      <path
         id="path3025"
         d="M 57.6,38.016 H 414.72 V 304.128 H 57.6 Z"
         inkscape:connector-curvature="0" />
    </clipPath>
    <clipPath
       id="clipPath3013">
      <path
         id="path3015"
         d="M 57.6,38.016 H 414.72 V 304.128 H 57.6 Z"
         inkscape:connector-curvature="0" />
    </clipPath>
    <clipPath
       id="clipPath3003">
      <path
         id="path3005"
         d="M 57.6,38.016 H 414.72 V 304.128 H 57.6 Z"
         inkscape:connector-curvature="0" />
    </clipPath>
    <clipPath
       id="clipPath4668"
       clipPathUnits="userSpaceOnUse">
      <path
         style="clip-rule:evenodd"
         inkscape:connector-curvature="0"
         id="path4666"
         d="M 0,1.2207e-4 H 960 V 540.00012 H 0 Z" />
    </clipPath>
    <clipPath
       id="clipPath4678"
       clipPathUnits="userSpaceOnUse">
      <path
         style="clip-rule:evenodd"
         inkscape:connector-curvature="0"
         id="path4676"
         d="M -5.84e-7,1.2207e-4 H 960 V 540.00012 H -5.84e-7 Z" />
    </clipPath>
    <linearGradient
       inkscape:collect="always"
       xlink:href="#linearGradient4733"
       id="linearGradient4735"
       x1="57.599998"
       y1="171.07201"
       x2="414.72"
       y2="171.07201"
       gradientUnits="userSpaceOnUse" />
    <linearGradient
       inkscape:collect="always"
       xlink:href="#linearGradient4733"
       id="linearGradient4737"
       gradientUnits="userSpaceOnUse"
       x1="57.599998"
       y1="171.07201"
       x2="414.72"
       y2="171.07201" />
    <clipPath
       id="clipPath4834"
       clipPathUnits="userSpaceOnUse">
      <path
         style="clip-rule:evenodd"
         inkscape:connector-curvature="0"
         id="path4832"
         d="M 0,1.2207e-4 H 960 V 540.00012 H 0 Z" />
    </clipPath>
    <clipPath
       id="clipPath4844"
       clipPathUnits="userSpaceOnUse">
      <path
         style="clip-rule:evenodd"
         inkscape:connector-curvature="0"
         id="path4842"
         d="M -5.84e-7,1.2207e-4 H 960 V 540.00012 H -5.84e-7 Z" />
    </clipPath>
  </defs>
  <sodipodi:namedview
     id="base"
     pagecolor="#ffffff"
     bordercolor="#666666"
     borderopacity="1.0"
     inkscape:pageopacity="0.0"
     inkscape:pageshadow="2"
     inkscape:zoom="1.4"
     inkscape:cx="-87.314333"
     inkscape:cy="132.1077"
     inkscape:document-units="mm"
     inkscape:current-layer="layer1"
     showgrid="true"
     inkscape:window-width="1920"
     inkscape:window-height="1017"
     inkscape:window-x="-8"
     inkscape:window-y="-8"
     inkscape:window-maximized="1"
     scale-x="0.7"
     fit-margin-top="0"
     fit-margin-left="0"
     fit-margin-right="0"
     fit-margin-bottom="0">
    <inkscape:grid
       type="xygrid"
       id="grid3713"
       originx="-257.29621"
       originy="-8.5022322" />
  </sodipodi:namedview>
  <metadata
     id="metadata5">
    <rdf:RDF>
      <cc:Work
         rdf:about="">
        <dc:format>image/svg+xml</dc:format>
        <dc:type
           rdf:resource="http://purl.org/dc/dcmitype/StillImage" />
        <dc:title></dc:title>
      </cc:Work>
    </rdf:RDF>
  </metadata>
  <g
     inkscape:label="Ebene 1"
     inkscape:groupmode="layer"
     id="layer1"
     transform="translate(-257.29622,-128.72343)">
    <rect
       style="opacity:1;fill:#3929ff;fill-opacity:1;stroke:none;stroke-width:0.53568977;stroke-linejoin:round;stroke-miterlimit:4;stroke-dasharray:none;stroke-dashoffset:0;stroke-opacity:1"
       id="rect3838"
       width="77.787498"
       height="29.633329"
       x="29.633326"
       y="219.0125" />
    <g
       transform="matrix(0.2459798,0,0,-0.22910955,127.88449,118.39058)"
       id="g3009" />
    <g
       id="g4826"
       inkscape:label="non_linear_optics"
       transform="matrix(0.24694441,0,0,-0.24694441,-46.805854,126.96206)">
      <g
         id="g4828">
        <g
           id="g4830"
           clip-path="url(#clipPath4834)">
          <path
             d="M 0,6.1035e-5 H 960 V 540.00006 H 0 Z"
             style="fill:#efede3;fill-opacity:1;fill-rule:evenodd;stroke:none"
             id="path4836"
             inkscape:connector-curvature="0" />
        </g>
      </g>
      <g
         id="g4838">
        <g
           id="g4840"
           clip-path="url(#clipPath4844)">
          <path
             d="m 37.68,6.1035e-5 h 18 V 540.00006 h -18 z"
             style="fill:#191b0e;fill-opacity:1;fill-rule:evenodd;stroke:none"
             id="path4846"
             inkscape:connector-curvature="0" />
        </g>
      </g>
      <path
         d="M 108.06,370.38 H 398.1 v 157.2 H 108.06 Z"
         style="fill:#e6c069;fill-opacity:1;fill-rule:evenodd;stroke:none"
         id="path4848"
         inkscape:connector-curvature="0" />
      <path
         d="M 108.06,527.58 H 398.1 V 370.38 H 108.06 Z m 2.76,-157.2 -2.76,2.76 H 398.1 l -2.76,-2.76 v 157.2 l 2.76,-2.76 H 108.06 l 2.76,2.76 z"
         style="fill:#efede3;fill-opacity:1;fill-rule:nonzero;stroke:none"
         id="path4850"
         inkscape:connector-curvature="0" />
      <path
         d="m 459.54,360.66 h 290.04 v 157.2 H 459.54 Z"
         style="fill:#897b61;fill-opacity:1;fill-rule:evenodd;stroke:none"
         id="path4852"
         inkscape:connector-curvature="0" />
      <path
         d="M 459.54,517.86 H 749.58 V 360.66 H 459.54 Z m 2.76,-157.2 -2.76,2.76 h 290.04 l -2.76,-2.76 v 157.2 l 2.76,-2.76 H 459.54 l 2.76,2.76 z"
         style="fill:#efede3;fill-opacity:1;fill-rule:nonzero;stroke:none"
         id="path4854"
         inkscape:connector-curvature="0" />
      <path
         d="m 100.74,203.46 h 290.04 v 157.2 H 100.74 Z"
         style="fill:#8dab8e;fill-opacity:1;fill-rule:evenodd;stroke:none"
         id="path4856"
         inkscape:connector-curvature="0" />
      <path
         d="M 100.74,360.66 H 390.78 V 203.46 H 100.74 Z m 2.76,-157.2 -2.76,2.76 h 290.04 l -2.76,-2.76 v 157.2 l 2.76,-2.76 H 100.74 l 2.76,2.76 z"
         style="fill:#efede3;fill-opacity:1;fill-rule:nonzero;stroke:none"
         id="path4858"
         inkscape:connector-curvature="0" />
      <path
         d="m 459.54,202.74 h 290.04 v 157.2 H 459.54 Z"
         style="fill:#77a2bb;fill-opacity:1;fill-rule:evenodd;stroke:none"
         id="path4860"
         inkscape:connector-curvature="0" />
      <path
         d="M 459.54,359.94 H 749.58 V 202.74 H 459.54 Z m 2.76,-157.2 -2.76,2.76 h 290.04 l -2.76,-2.76 v 157.2 l 2.76,-2.76 H 459.54 l 2.76,2.76 z"
         style="fill:#efede3;fill-opacity:1;fill-rule:nonzero;stroke:none"
         id="path4862"
         inkscape:connector-curvature="0" />
      <path
         d="m 104.1,27.78 h 290.04 v 157.2 H 104.1 Z"
         style="fill:#e28394;fill-opacity:1;fill-rule:evenodd;stroke:none"
         id="path4864"
         inkscape:connector-curvature="0" />
      <path
         d="M 104.1,184.98 H 394.14 V 27.78 H 104.1 Z m 2.76,-157.2 -2.76,2.76 h 290.04 l -2.76,-2.76 v 157.2 l 2.76,-2.76 H 104.1 l 2.76,2.76 z"
         style="fill:#efede3;fill-opacity:1;fill-rule:nonzero;stroke:none"
         id="path4866"
         inkscape:connector-curvature="0" />
      <path
         d="M 471.42,32.34 H 761.34 V 189.66 H 471.42 Z"
         style="fill:#191b0e;fill-opacity:1;fill-rule:evenodd;stroke:none"
         id="path4868"
         inkscape:connector-curvature="0" />
      <path
         d="M 471.42,189.66 H 761.34 V 32.34 H 471.42 Z m 2.76,-157.32 -2.76,2.76 h 289.92 l -2.76,-2.76 v 157.32 l 2.76,-2.76 H 471.42 l 2.76,2.76 z"
         style="fill:#efede3;fill-opacity:1;fill-rule:nonzero;stroke:none"
         id="path4870"
         inkscape:connector-curvature="0" />
    </g>
    <g
       id="g5013"
       transform="rotate(-90,199.27407,109.13201)">
      <g
         style="stroke:#e28394;stroke-opacity:1"
         transform="matrix(0.05834437,0,0,-0.04066593,155.48607,180.88199)"
         id="g2999">
        <g
           style="fill:#e28394;fill-opacity:1;stroke:url(#linearGradient4735);stroke-opacity:1"
           clip-path="url(#clipPath3003)"
           id="g3001">
          <path
             inkscape:connector-curvature="0"
             d="M 37.76,292.032 V 50.112 l 0.397197,0.222708 0.397197,0.222672 0.397198,0.222635 0.397197,0.222599 0.397197,0.222563 0.397197,0.222526 0.397197,0.222488 0.397198,0.222452 0.397197,0.222414 0.397197,0.222377 0.397197,0.222339 0.397197,0.2223 0.397198,0.222263 0.397197,0.222223 0.397197,0.222186 0.397197,0.222146 0.397197,0.222107 0.397198,0.222068 0.397197,0.222028 0.397197,0.221988 0.397197,0.221949 0.397197,0.221908 0.397198,0.221867 0.397197,0.221827 0.397197,0.221786 0.397197,0.221745 0.397197,0.221703 0.397198,0.221661 0.397197,0.22162 0.397197,0.221577 0.397197,0.221535 0.397197,0.221492 0.397198,0.22145 0.397197,0.221406 0.397197,0.221363 0.397197,0.221319 0.397197,0.221275 0.397197,0.221231 0.397198,0.221186 0.397197,0.221142 0.397197,0.221097 0.397197,0.221051 0.397197,0.221006 0.397198,0.220961 0.397197,0.220914 0.397197,0.220868 0.397197,0.220821 0.397197,0.220774 0.397198,0.220727 0.397197,0.22068 0.397197,0.220632 0.397197,0.220584 0.397197,0.220535 0.397198,0.220487 0.397197,0.220438 0.397197,0.220389 0.397197,0.220339 0.397197,0.220289 0.397198,0.22024 0.397197,0.220188 0.397197,0.220139 0.397197,0.220087 0.397197,0.220035 0.397198,0.219984 0.397197,0.219932 0.397197,0.21988 0.397197,0.219827 0.397197,0.219774 0.397198,0.21972 0.397197,0.219667 0.397197,0.219613 0.397197,0.219559 0.397197,0.219504 0.397198,0.219449 0.397197,0.219394 0.397197,0.219338 0.397197,0.219282 0.397197,0.219225 0.397198,0.219169 0.397197,0.219112 0.397197,0.219054 0.397197,0.218996 0.397197,0.218938 0.397198,0.218879 0.397197,0.21882 0.397197,0.218761 0.397197,0.218702 0.397197,0.218641 0.397198,0.21858 0.397197,0.21852 0.397197,0.218458 0.397197,0.218397 0.397197,0.218334 0.397198,0.218272 0.397197,0.218209 0.397197,0.218146 0.397197,0.218082 0.397197,0.218018 0.397198,0.217953 0.397197,0.217888 0.397197,0.217823 0.397197,0.217757 0.397197,0.21769 0.397198,0.217624 0.397197,0.217556 0.397197,0.217489 0.397197,0.21742 0.397197,0.217352 0.397197,0.217283 0.397198,0.217214 0.397197,0.217143 0.397197,0.217073 0.397197,0.217003 0.397197,0.21693 0.397198,0.216859 0.397197,0.216787 0.397197,0.216713 0.397197,0.21664 0.397197,0.216567 0.397198,0.216491 0.397197,0.216417 0.397197,0.216342 0.397197,0.216266 0.397197,0.216189 0.397198,0.216112 0.397197,0.216034 0.397197,0.215957 0.397197,0.215878 0.397197,0.215799 0.397198,0.215719 0.397197,0.215638 0.397197,0.215558 0.397197,0.215477 0.397197,0.215394 0.397198,0.215312 0.397197,0.215229 0.397197,0.215145 0.397197,0.215061 0.397197,0.214975 0.397198,0.21489 0.397197,0.214804 0.397197,0.214718 0.397197,0.214629 0.397197,0.214542 0.397198,0.214453 0.397197,0.214364 0.397197,0.214274 0.397197,0.214183 0.397197,0.214092 0.397198,0.214 0.397197,0.213907 0.397197,0.213814 0.397197,0.213721 0.397197,0.213625 0.397198,0.21353 0.397197,0.213434 0.397197,0.213337 0.3972,0.21324 0.39719,0.213142 0.3972,0.213042 0.3972,0.212943 0.3972,0.212843 0.39719,0.212741 0.3972,0.212639 0.3972,0.212537 0.39719,0.212433 0.3972,0.212329 0.3972,0.212224 0.3972,0.212118 0.39719,0.212011 0.3972,0.211904 0.3972,0.211796 0.3972,0.211687 0.39719,0.211576 0.3972,0.211466 0.3972,0.211354 0.39719,0.211242 0.3972,0.211128 0.3972,0.211015 0.39719,0.210899 0.3972,0.210783 0.3972,0.210666 0.3972,0.210548 0.39719,0.21043 0.3972,0.21031 0.3972,0.210189 0.3972,0.210067 0.39719,0.209946 0.3972,0.209821 0.3972,0.209698 0.3972,0.209571 0.39719,0.209446 0.3972,0.209318 0.3972,0.209189 0.39719,0.20906 0.3972,0.20893 0.3972,0.208797 0.3972,0.208666 0.39719,0.208531 0.3972,0.208397 0.3972,0.208261 0.39719,0.208124 0.3972,0.207986 0.3972,0.207846 0.39719,0.207707 0.3972,0.207565 0.3972,0.207422 0.3972,0.207278 0.39719,0.207134 0.3972,0.206987 0.3972,0.20684 0.3972,0.206691 0.39719,0.206541 0.3972,0.206391 0.3972,0.206238 0.3972,0.206084 0.39719,0.205929 0.3972,0.205774 0.3972,0.205615 0.39719,0.205457 0.3972,0.205297 0.3972,0.205136 0.3972,0.204972 0.39719,0.204808 0.3972,0.204643 0.3972,0.204475 0.39719,0.204307 0.3972,0.204137 0.3972,0.203966 0.39719,0.203792 0.3972,0.203619 0.3972,0.203441 0.3972,0.20327 0.39719,0.20308 0.3972,0.20291 0.3972,0.20272 0.3972,0.20254 0.39719,0.20236 0.3972,0.20217 0.3972,0.20198 0.39719,0.20179 0.3972,0.2016 0.3972,0.2014 0.3972,0.20121 0.39719,0.20101 0.3972,0.20082 0.3972,0.20061 0.39719,0.20041 0.3972,0.20021 0.3972,0.2 0.3972,0.19979 0.39719,0.19959 0.3972,0.19937 0.3972,0.19916 0.39719,0.19895 0.3972,0.19873 0.3972,0.1985 0.3972,0.19829 0.39719,0.19807 0.3972,0.19784 0.3972,0.19761 0.3972,0.19738 0.39719,0.19715 0.3972,0.19692 0.3972,0.19668 0.39719,0.19645 0.3972,0.1962 0.3972,0.19597 0.3972,0.19572 0.39719,0.19547 0.3972,0.19522 0.3972,0.19497 0.39719,0.19472 0.3972,0.19446 0.3972,0.1942 0.3972,0.19395 0.39719,0.19368 0.3972,0.19341 0.3972,0.19315 0.39719,0.19287 0.3972,0.1926 0.3972,0.19233 0.3972,0.19205 0.39719,0.19176 0.3972,0.19149 0.3972,0.19119 0.3972,0.19091 0.39719,0.19061 0.3972,0.19032 0.3972,0.19002 0.39719,0.18972 0.3972,0.18942 0.3972,0.18911 0.3972,0.18881 0.39719,0.18849 0.3972,0.18817 0.3972,0.18786 0.39719,0.18753 0.3972,0.18721 0.3972,0.18688 0.3972,0.18656 0.39719,0.18621 0.3972,0.18588 0.3972,0.18554 0.39719,0.1852 0.3972,0.18485 0.3972,0.18449 0.3972,0.18414 0.39719,0.18379 0.3972,0.18342 0.3972,0.18306 0.3972,0.18269 0.39719,0.18231 0.3972,0.18195 0.3972,0.18156 0.39719,0.18117 0.3972,0.1808 0.3972,0.1804 0.3972,0.18 0.39719,0.1796 0.3972,0.17921 0.3972,0.17879 0.39719,0.17839 0.3972,0.17796 0.3972,0.17755 0.3972,0.17713 0.39719,0.1767 0.3972,0.17626 0.3972,0.17583 0.39719,0.17539 0.3972,0.17494 0.3972,0.17449 0.3972,0.17404 0.39719,0.17358 0.3972,0.17311 0.3972,0.17265 0.39719,0.17217 0.3972,0.17169 0.3972,0.17121 0.3972,0.17073 0.39719,0.17023 0.3972,0.16973 0.3972,0.16923 0.3972,0.16872 0.39719,0.16821 0.3972,0.16769 0.3972,0.16716 0.39719,0.16664 0.3972,0.1661 0.3972,0.16556 0.3972,0.16502 0.39719,0.16446 0.3972,0.16391 0.3972,0.16335 0.39719,0.16277 0.3972,0.16221 0.3972,0.16162 0.3972,0.16104 0.39719,0.16044 0.3972,0.15985 0.3972,0.15924 0.39719,0.15864 0.3972,0.15802 0.3972,0.15739 0.3972,0.15677 0.39719,0.15613 0.3972,0.15549 0.3972,0.15484 0.3972,0.15418 0.39719,0.15353 0.3972,0.15285 0.3972,0.15218 0.39719,0.1515 0.3972,0.15081 0.3972,0.15012 0.3972,0.14941 0.39719,0.1487 0.3972,0.14799 0.3972,0.14726 0.39719,0.14653 0.3972,0.14579 0.3972,0.14505 0.3972,0.14429 0.39719,0.14353 0.3972,0.14276 0.3972,0.14199 0.39719,0.1412 0.3972,0.14041 0.3972,0.13961 0.3972,0.13881 0.39719,0.13799 0.3972,0.13716 0.3972,0.13634 0.3972,0.13549 0.39719,0.13465 0.3972,0.1338 0.3972,0.13292 0.39719,0.13206 0.3972,0.13118 0.3972,0.13029 0.3972,0.12939 0.39719,0.12849 0.3972,0.12757 0.3972,0.12665 0.39719,0.12572 0.3972,0.12478 0.3972,0.12383 0.3972,0.12287 0.39719,0.12191 0.3972,0.12093 0.3972,0.11995 0.39719,0.11895 0.3972,0.11796 0.3972,0.11694 0.3972,0.11592 0.39719,0.1149 0.3972,0.11385 0.3972,0.11282 0.3972,0.11175 0.39719,0.11069 0.3972,0.10962 0.3972,0.10853 0.39719,0.10744 0.3972,0.10634 0.3972,0.10523 0.3972,0.10411 0.39719,0.10298 0.3972,0.10185 0.3972,0.10069 0.39719,0.0995 0.3972,0.0984 0.3972,0.0972 0.3972,0.096 0.39719,0.0948 0.3972,0.0936 0.3972,0.0924 0.39719,0.0912 0.3972,0.09 0.3972,0.0887 0.3972,0.0875 0.39719,0.0862 0.3972,0.085 0.3972,0.0837 0.3972,0.0824 0.39719,0.0811 0.3972,0.0798 0.3972,0.0785 0.39719,0.0772 0.3972,0.0759 0.3972,0.0745 0.3972,0.0732 0.39719,0.0718 0.3972,0.0705 0.3972,0.0691 0.39719,0.0678 0.3972,0.0664 0.3972,0.065 0.3972,0.0636 0.39719,0.0622 0.3972,0.0608 0.3972,0.0593 0.39719,0.0579 0.3972,0.0565 0.3972,0.055 0.3972,0.0536 0.39719,0.0522 0.3972,0.0507 0.3972,0.0492 0.39719,0.0478 0.3972,0.0463 0.3972,0.0448 0.3972,0.0433 0.39719,0.0418 0.3972,0.0403 0.3972,0.0388 0.3972,0.0373 0.39719,0.0358 0.3972,0.0342 0.3972,0.0327 0.39719,0.0312 0.3972,0.0297 0.3972,0.0281 0.3972,0.0266 0.39719,0.025 0.3972,0.0235 0.3972,0.0219 0.39719,0.0204 0.3972,0.0188 0.3972,0.0173 0.3972,0.0157 0.39719,0.0141 0.3972,0.0126 0.3972,0.011 0.39719,0.009 0.3972,0.008 0.3972,0.006 0.3972,0.005 0.39719,0.003 0.3972,0.002 h 0.3972 l 0.3972,-0.002 0.39719,-0.003 0.3972,-0.005 0.3972,-0.006 0.39719,-0.008 0.3972,-0.009 0.3972,-0.011 0.3972,-0.0126 0.39719,-0.0141 0.3972,-0.0157 0.3972,-0.0173 0.39719,-0.0188 0.3972,-0.0204 0.3972,-0.0219 0.3972,-0.0235 0.39719,-0.025 0.3972,-0.0266 0.3972,-0.0281 0.39719,-0.0297 0.3972,-0.0312 0.3972,-0.0327 0.3972,-0.0342 0.39719,-0.0358 0.3972,-0.0373 0.3972,-0.0388 0.3972,-0.0403 0.39719,-0.0418 0.3972,-0.0433 0.3972,-0.0448 0.39719,-0.0463 0.3972,-0.0478 0.3972,-0.0492 0.3972,-0.0507 0.39719,-0.0522 0.3972,-0.0536 0.3972,-0.055 0.39719,-0.0565 0.3972,-0.0579 0.3972,-0.0593 0.3972,-0.0608 0.39719,-0.0622 0.3972,-0.0636 0.3972,-0.065 0.39719,-0.0664 0.3972,-0.0678 0.3972,-0.0691 0.3972,-0.0705 0.39719,-0.0718 0.3972,-0.0732 0.3972,-0.0745 0.3972,-0.0759 0.39719,-0.0772 0.3972,-0.0785 0.3972,-0.0798 0.39719,-0.0811 0.3972,-0.0824 0.3972,-0.0837 0.3972,-0.085 0.39719,-0.0862 0.3972,-0.0875 0.3972,-0.0887 0.39719,-0.09 0.3972,-0.0912 0.3972,-0.0924 0.3972,-0.0936 0.39719,-0.0948 0.3972,-0.096 0.3972,-0.0972 0.39719,-0.0984 0.3972,-0.0995 0.3972,-0.10069 0.3972,-0.10185 0.39719,-0.10298 0.3972,-0.10411 0.3972,-0.10523 0.3972,-0.10634 0.39719,-0.10744 0.3972,-0.10853 0.3972,-0.10962 0.39719,-0.11069 0.3972,-0.11175 0.3972,-0.11282 0.3972,-0.11385 0.39719,-0.1149 0.3972,-0.11592 0.3972,-0.11694 0.39719,-0.11796 0.3972,-0.11895 0.3972,-0.11995 0.3972,-0.12093 0.39719,-0.12191 0.3972,-0.12287 0.3972,-0.12383 0.39719,-0.12478 0.3972,-0.12572 0.3972,-0.12665 0.3972,-0.12757 0.39719,-0.12849 0.3972,-0.12939 0.3972,-0.13029 0.3972,-0.13118 0.39719,-0.13206 0.3972,-0.13292 0.3972,-0.1338 0.39719,-0.13465 0.3972,-0.13549 0.3972,-0.13634 0.3972,-0.13716 0.39719,-0.13799 0.3972,-0.13881 0.3972,-0.13961 0.3972,-0.14041 0.39719,-0.1412 0.3972,-0.14199 0.3972,-0.14276 0.39719,-0.14353 0.3972,-0.14429 0.3972,-0.14505 0.39719,-0.14579 0.3972,-0.14653 0.3972,-0.14726 0.3972,-0.14799 0.39719,-0.1487 0.3972,-0.14941 0.3972,-0.15012 0.39719,-0.15081 0.3972,-0.1515 0.3972,-0.15218 0.3972,-0.15285 0.39719,-0.15353 0.3972,-0.15418 0.3972,-0.15484 0.3972,-0.15549 0.39719,-0.15613 0.3972,-0.15677 0.3972,-0.15739 0.39719,-0.15802 0.3972,-0.15864 0.3972,-0.15924 0.3972,-0.15985 0.39719,-0.16044 0.3972,-0.16104 0.3972,-0.16162 0.3972,-0.16221 0.39719,-0.16277 0.3972,-0.16335 0.3972,-0.16391 0.39719,-0.16446 0.3972,-0.16502 0.3972,-0.16556 0.39719,-0.1661 0.3972,-0.16664 0.3972,-0.16716 0.3972,-0.16769 0.39719,-0.16821 0.3972,-0.16872 0.3972,-0.16923 0.3972,-0.16973 0.39719,-0.17023 0.3972,-0.17073 0.3972,-0.17121 0.39719,-0.17169 0.3972,-0.17217 0.3972,-0.17265 0.3972,-0.17311 0.39719,-0.17358 0.3972,-0.17404 0.3972,-0.17449 0.39719,-0.17494 0.3972,-0.17539 0.3972,-0.17583 0.3972,-0.17626 0.39719,-0.1767 0.3972,-0.17713 0.3972,-0.17755 0.39719,-0.17796 0.3972,-0.17839 0.3972,-0.17879 0.3972,-0.17921 0.39719,-0.1796 0.3972,-0.18 0.3972,-0.1804 0.3972,-0.1808 0.39719,-0.18117 0.3972,-0.18156 0.3972,-0.18195 0.39719,-0.18231 0.3972,-0.18269 0.3972,-0.18306 0.3972,-0.18342 0.39719,-0.18379 0.3972,-0.18414 0.3972,-0.18449 0.39719,-0.18485 0.3972,-0.1852 0.3972,-0.18554 0.3972,-0.18588 0.39719,-0.18621 0.3972,-0.18656 0.3972,-0.18688 0.39719,-0.18721 0.3972,-0.18753 0.3972,-0.18786 0.3972,-0.18817 0.39719,-0.18849 0.3972,-0.18881 0.3972,-0.18911 0.3972,-0.18942 0.39719,-0.18972 0.3972,-0.19002 0.3972,-0.19032 0.39719,-0.19061 0.3972,-0.19091 0.3972,-0.19119 0.3972,-0.19149 0.39719,-0.19176 0.3972,-0.19205 0.3972,-0.19233 0.3972,-0.1926 0.39719,-0.19287 0.3972,-0.19315 0.3972,-0.19341 0.39719,-0.19368 0.3972,-0.19395 0.3972,-0.1942 0.39719,-0.19446 0.3972,-0.19472 0.3972,-0.19497 0.3972,-0.19522 0.39719,-0.19547 0.3972,-0.19572 0.3972,-0.19597 0.3972,-0.1962 0.39719,-0.19645 0.3972,-0.19668 0.3972,-0.19692 0.39719,-0.19715 0.3972,-0.19738 0.3972,-0.19761 0.3972,-0.19784 0.39719,-0.19807 0.3972,-0.19829 0.3972,-0.1985 0.39719,-0.19873 0.3972,-0.19895 0.3972,-0.19916 0.3972,-0.19937 0.39719,-0.19959 0.3972,-0.19979 0.3972,-0.2 0.39719,-0.20021 0.3972,-0.20041 0.3972,-0.20061 0.3972,-0.20082 0.39719,-0.20101 0.3972,-0.20121 0.3972,-0.2014 0.39719,-0.2016 0.3972,-0.20179 0.3972,-0.20198 0.3972,-0.20217 0.39719,-0.20236 0.3972,-0.20254 0.3972,-0.20272 0.3972,-0.20291 0.39719,-0.20308 0.3972,-0.20327 0.3972,-0.203441 0.3972,-0.203619 0.39719,-0.203792 0.3972,-0.203966 0.3972,-0.204137 0.39719,-0.204307 0.3972,-0.204475 0.3972,-0.204643 0.39719,-0.204808 0.3972,-0.204972 0.3972,-0.205136 0.3972,-0.205297 0.39719,-0.205457 0.3972,-0.205615 0.3972,-0.205774 0.39719,-0.205929 0.3972,-0.206084 0.3972,-0.206238 0.3972,-0.206391 0.39719,-0.206541 0.3972,-0.206691 0.3972,-0.20684 0.3972,-0.206987 0.39719,-0.207134 0.3972,-0.207278 0.3972,-0.207422 0.39719,-0.207565 0.3972,-0.207707 0.3972,-0.207846 0.3972,-0.207986 0.39719,-0.208124 0.3972,-0.208261 0.3972,-0.208397 0.39719,-0.208531 0.3972,-0.208666 0.3972,-0.208797 0.3972,-0.20893 0.39719,-0.20906 0.3972,-0.209189 0.3972,-0.209318 0.39719,-0.209446 0.3972,-0.209571 0.3972,-0.209698 0.3972,-0.209821 0.39719,-0.209946 0.3972,-0.210067 0.3972,-0.210189 0.3972,-0.21031 0.39719,-0.21043 0.3972,-0.210548 0.3972,-0.210666 0.39719,-0.210783 0.3972,-0.210899 0.3972,-0.211015 0.3972,-0.211128 0.39719,-0.211242 0.3972,-0.211354 0.3972,-0.211466 0.3972,-0.211576 0.39719,-0.211687 0.3972,-0.211796 0.3972,-0.211904 0.39719,-0.212011 0.3972,-0.212118 0.3972,-0.212224 0.3972,-0.212329 0.39719,-0.212433 0.3972,-0.212537 0.3972,-0.212639 0.39719,-0.212741 0.3972,-0.212843 0.3972,-0.212943 0.3972,-0.213042 0.39719,-0.213142 0.3972,-0.21324 0.3972,-0.213337 0.39719,-0.213434 0.3972,-0.21353 0.3972,-0.213625 0.3972,-0.213721 0.39719,-0.213814 0.3972,-0.213907 0.3972,-0.214 0.39719,-0.214092 0.3972,-0.214183 0.3972,-0.214274 0.3972,-0.214364 0.39719,-0.214453 0.3972,-0.214542 0.3972,-0.214629 0.39719,-0.214718 0.3972,-0.214804 0.3972,-0.21489 0.3972,-0.214975 0.39719,-0.215061 0.3972,-0.215145 0.3972,-0.215229 0.3972,-0.215312 0.39719,-0.215394 0.3972,-0.215477 0.3972,-0.215558 0.39719,-0.215638 0.3972,-0.215719 0.3972,-0.215799 0.3972,-0.215878 0.39719,-0.215957 0.3972,-0.216034 0.3972,-0.216112 0.39719,-0.216189 0.3972,-0.216266 0.3972,-0.216342 0.3972,-0.216417 0.39719,-0.216491 0.3972,-0.216567 0.3972,-0.21664 0.39719,-0.216713 0.3972,-0.216787 0.3972,-0.216859 0.3972,-0.21693 0.39719,-0.217003 0.3972,-0.217073 0.3972,-0.217143 0.3972,-0.217214 0.39719,-0.217283 0.3972,-0.217352 0.3972,-0.21742 0.39719,-0.217489 0.3972,-0.217556 0.3972,-0.217624 0.3972,-0.21769 0.39719,-0.217757 0.3972,-0.217823 0.3972,-0.217888 0.3972,-0.217953 0.39719,-0.218018 0.3972,-0.218082 0.3972,-0.218146 0.39719,-0.218209 0.3972,-0.218272 0.3972,-0.218334 0.39719,-0.218397 0.3972,-0.218458 0.3972,-0.21852 0.3972,-0.21858 0.39719,-0.218641 0.3972,-0.218702 0.3972,-0.218761 0.39719,-0.21882 0.3972,-0.218879 0.3972,-0.218938 0.3972,-0.218996 0.39719,-0.219054 0.3972,-0.219112 0.3972,-0.219169 0.3972,-0.219225 0.39719,-0.219282 0.3972,-0.219338 0.3972,-0.219394 0.3972,-0.219449 0.39719,-0.219504 0.3972,-0.219559 0.3972,-0.219613 0.39719,-0.219667 0.3972,-0.21972 0.3972,-0.219774 0.3972,-0.219827 0.39719,-0.21988 0.3972,-0.219932 0.3972,-0.219984 0.39719,-0.220035 0.3972,-0.220087 0.3972,-0.220139 0.39719,-0.220188 0.3972,-0.22024 0.3972,-0.220289 0.3972,-0.220339 0.39719,-0.220389 0.3972,-0.220438 0.3972,-0.220487 0.3972,-0.220535 0.39719,-0.220584 0.3972,-0.220632 0.3972,-0.22068 0.39719,-0.220727 0.3972,-0.220774 0.3972,-0.220821 0.3972,-0.220868 0.39719,-0.220914 0.3972,-0.220961 0.3972,-0.221006 0.39719,-0.221051 0.3972,-0.221097 0.3972,-0.221142 0.3972,-0.221186 0.39719,-0.221231 0.3972,-0.221275 0.3972,-0.221319 0.39719,-0.221363 0.3972,-0.221406 0.3972,-0.22145 0.3972,-0.221492 0.39719,-0.221535 0.3972,-0.221577 0.3972,-0.22162 0.3972,-0.221661 0.39719,-0.221703 0.3972,-0.221745 0.3972,-0.221786 0.39719,-0.221827 0.3972,-0.221867 0.3972,-0.221908 0.3972,-0.221949 0.39719,-0.221988 0.3972,-0.222028 0.3972,-0.222068 0.3972,-0.222107 0.39719,-0.222146 0.3972,-0.222186 0.3972,-0.222223 0.39719,-0.222263 0.3972,-0.2223 0.3972,-0.222339 0.39719,-0.222377 0.3972,-0.222414 0.3972,-0.222452 0.3972,-0.222488 0.39719,-0.222526 0.3972,-0.222563 0.3972,-0.222599 0.3972,-0.222635 0.39719,-0.222672 L 434.56,50.112 v 241.92 0 l -0.3972,-0.22271 -0.39719,-0.22267 -0.3972,-0.22263 -0.3972,-0.2226 -0.3972,-0.22257 -0.39719,-0.22252 -0.3972,-0.22249 -0.3972,-0.22245 -0.3972,-0.22242 -0.39719,-0.22237 -0.3972,-0.22234 -0.3972,-0.2223 -0.39719,-0.22227 -0.3972,-0.22222 -0.3972,-0.22219 -0.39719,-0.22214 -0.3972,-0.22211 -0.3972,-0.22207 -0.3972,-0.22202 -0.39719,-0.22199 -0.3972,-0.22195 -0.3972,-0.22191 -0.3972,-0.22187 -0.39719,-0.22182 -0.3972,-0.22179 -0.3972,-0.22174 -0.39719,-0.22171 -0.3972,-0.22166 -0.3972,-0.22162 -0.3972,-0.22158 -0.39719,-0.22153 -0.3972,-0.22149 -0.3972,-0.22145 -0.3972,-0.22141 -0.39719,-0.22136 -0.3972,-0.22132 -0.3972,-0.22128 -0.39719,-0.22123 -0.3972,-0.22118 -0.3972,-0.22114 -0.3972,-0.2211 -0.39719,-0.22105 -0.3972,-0.22101 -0.3972,-0.22096 -0.39719,-0.22091 -0.3972,-0.22087 -0.3972,-0.22082 -0.3972,-0.22078 -0.39719,-0.22072 -0.3972,-0.22068 -0.3972,-0.22064 -0.39719,-0.22058 -0.3972,-0.22053 -0.3972,-0.22049 -0.3972,-0.22044 -0.39719,-0.22039 -0.3972,-0.22034 -0.3972,-0.22029 -0.3972,-0.22024 -0.39719,-0.22018 -0.3972,-0.22014 -0.3972,-0.22009 -0.39719,-0.22004 -0.3972,-0.21998 -0.3972,-0.21993 -0.39719,-0.21988 -0.3972,-0.21983 -0.3972,-0.21977 -0.3972,-0.21972 -0.39719,-0.21967 -0.3972,-0.21961 -0.3972,-0.21956 -0.39719,-0.21951 -0.3972,-0.21944 -0.3972,-0.2194 -0.3972,-0.21934 -0.39719,-0.21928 -0.3972,-0.21922 -0.3972,-0.21917 -0.3972,-0.21911 -0.39719,-0.21906 -0.3972,-0.21899 -0.3972,-0.21894 -0.3972,-0.21888 -0.39719,-0.21882 -0.3972,-0.21876 -0.3972,-0.2187 -0.39719,-0.21865 -0.3972,-0.21858 -0.3972,-0.21851 -0.3972,-0.21846 -0.39719,-0.2184 -0.3972,-0.21833 -0.3972,-0.21828 -0.39719,-0.21821 -0.3972,-0.21814 -0.3972,-0.21808 -0.39719,-0.21802 -0.3972,-0.21795 -0.3972,-0.21789 -0.3972,-0.21783 -0.39719,-0.21775 -0.3972,-0.21769 -0.3972,-0.21763 -0.3972,-0.21755 -0.39719,-0.21749 -0.3972,-0.21742 -0.3972,-0.21735 -0.39719,-0.21729 -0.3972,-0.21721 -0.3972,-0.21714 -0.3972,-0.21708 -0.39719,-0.217 -0.3972,-0.21693 -0.3972,-0.21686 -0.3972,-0.21679 -0.39719,-0.21671 -0.3972,-0.21664 -0.3972,-0.21657 -0.39719,-0.21649 -0.3972,-0.21641 -0.3972,-0.21635 -0.3972,-0.21626 -0.39719,-0.21619 -0.3972,-0.21611 -0.3972,-0.21604 -0.39719,-0.21595 -0.3972,-0.21588 -0.3972,-0.2158 -0.3972,-0.21572 -0.39719,-0.21564 -0.3972,-0.21556 -0.3972,-0.21547 -0.39719,-0.2154 -0.3972,-0.21531 -0.3972,-0.21523 -0.3972,-0.21514 -0.39719,-0.21506 -0.3972,-0.21498 -0.3972,-0.21489 -0.3972,-0.2148 -0.39719,-0.21472 -0.3972,-0.21463 -0.3972,-0.21454 -0.39719,-0.21445 -0.3972,-0.21437 -0.3972,-0.21427 -0.3972,-0.21418 -0.39719,-0.2141 -0.3972,-0.214 -0.3972,-0.2139 -0.39719,-0.21382 -0.3972,-0.21372 -0.3972,-0.21362 -0.3972,-0.21353 -0.39719,-0.21344 -0.3972,-0.21333 -0.3972,-0.21325 -0.39719,-0.21314 -0.3972,-0.21304 -0.3972,-0.21294 -0.3972,-0.21285 -0.39719,-0.21274 -0.3972,-0.21264 -0.3972,-0.21253 -0.39719,-0.21244 -0.3972,-0.21232 -0.3972,-0.21223 -0.3972,-0.21212 -0.39719,-0.21201 -0.3972,-0.2119 -0.3972,-0.2118 -0.39719,-0.21168 -0.3972,-0.21158 -0.3972,-0.21147 -0.3972,-0.21135 -0.39719,-0.21124 -0.3972,-0.21113 -0.3972,-0.21102 -0.3972,-0.21089 -0.39719,-0.21079 -0.3972,-0.21066 -0.3972,-0.21055 -0.39719,-0.21043 -0.3972,-0.21031 -0.3972,-0.21019 -0.3972,-0.21007 -0.39719,-0.20994 -0.3972,-0.20982 -0.3972,-0.2097 -0.3972,-0.20957 -0.39719,-0.20945 -0.3972,-0.20932 -0.3972,-0.20919 -0.39719,-0.20906 -0.3972,-0.20893 -0.3972,-0.20879 -0.3972,-0.20867 -0.39719,-0.20853 -0.3972,-0.2084 -0.3972,-0.20826 -0.39719,-0.20812 -0.3972,-0.20799 -0.3972,-0.20784 -0.3972,-0.20771 -0.39719,-0.20757 -0.3972,-0.20742 -0.3972,-0.20728 -0.39719,-0.20713 -0.3972,-0.20699 -0.3972,-0.20684 -0.3972,-0.20669 -0.39719,-0.20654 -0.3972,-0.20639 -0.3972,-0.20624 -0.3972,-0.20608 -0.39719,-0.20593 -0.3972,-0.20578 -0.3972,-0.20561 -0.39719,-0.20546 -0.3972,-0.20529 -0.3972,-0.20514 -0.3972,-0.20497 -0.39719,-0.20481 -0.3972,-0.20464 -0.3972,-0.20448 -0.39719,-0.20431 -0.3972,-0.20413 -0.3972,-0.20397 -0.39719,-0.20379 -0.3972,-0.20362 -0.3972,-0.20344 -0.3972,-0.20327 -0.39719,-0.20308 -0.3972,-0.20291 -0.3972,-0.20272 -0.3972,-0.20254 -0.39719,-0.20236 -0.3972,-0.20217 -0.3972,-0.20198 -0.3972,-0.20179 -0.39719,-0.2016 -0.3972,-0.2014 -0.3972,-0.20121 -0.39719,-0.20101 -0.3972,-0.20082 -0.3972,-0.20061 -0.3972,-0.20041 -0.39719,-0.20021 -0.3972,-0.2 -0.3972,-0.1998 -0.39719,-0.19958 -0.3972,-0.19937 -0.3972,-0.19916 -0.3972,-0.19895 -0.39719,-0.19873 -0.3972,-0.1985 -0.3972,-0.19829 -0.39719,-0.19807 -0.3972,-0.19784 -0.3972,-0.19761 -0.3972,-0.19738 -0.39719,-0.19715 -0.3972,-0.19692 -0.3972,-0.19668 -0.39719,-0.19645 -0.3972,-0.1962 -0.3972,-0.19597 -0.3972,-0.19572 -0.39719,-0.19547 -0.3972,-0.19522 -0.3972,-0.19497 -0.3972,-0.19472 -0.39719,-0.19446 -0.3972,-0.19421 -0.3972,-0.19394 -0.39719,-0.19368 -0.3972,-0.19341 -0.3972,-0.19315 -0.39719,-0.19287 -0.3972,-0.1926 -0.3972,-0.19233 -0.3972,-0.19205 -0.39719,-0.19176 -0.3972,-0.19149 -0.3972,-0.19119 -0.3972,-0.19091 -0.39719,-0.19061 -0.3972,-0.19032 -0.3972,-0.19002 -0.39719,-0.18972 -0.3972,-0.18942 -0.3972,-0.18911 -0.3972,-0.18881 -0.39719,-0.18849 -0.3972,-0.18817 -0.3972,-0.18786 -0.3972,-0.18753 -0.39719,-0.18721 -0.3972,-0.18688 -0.3972,-0.18656 -0.39719,-0.18621 -0.3972,-0.18588 -0.3972,-0.18554 -0.3972,-0.1852 -0.39719,-0.18485 -0.3972,-0.18449 -0.3972,-0.18414 -0.39719,-0.18379 -0.3972,-0.18342 -0.3972,-0.18306 -0.3972,-0.18269 -0.39719,-0.18232 -0.3972,-0.18194 -0.3972,-0.18156 -0.39719,-0.18118 -0.3972,-0.18079 -0.3972,-0.1804 -0.3972,-0.18 -0.39719,-0.1796 -0.3972,-0.17921 -0.3972,-0.17879 -0.3972,-0.17839 -0.39719,-0.17796 -0.3972,-0.17755 -0.3972,-0.17713 -0.39719,-0.1767 -0.3972,-0.17626 -0.3972,-0.17583 -0.3972,-0.17539 -0.39719,-0.17494 -0.3972,-0.17449 -0.3972,-0.17404 -0.39719,-0.17358 -0.3972,-0.17311 -0.3972,-0.17265 -0.3972,-0.17217 -0.39719,-0.17169 -0.3972,-0.17121 -0.3972,-0.17073 -0.39719,-0.17023 -0.3972,-0.16973 -0.3972,-0.16923 -0.3972,-0.16872 -0.39719,-0.16821 -0.3972,-0.16769 -0.3972,-0.16716 -0.3972,-0.16664 -0.39719,-0.1661 -0.3972,-0.16556 -0.3972,-0.16502 -0.39719,-0.16446 -0.3972,-0.16391 -0.3972,-0.16335 -0.39719,-0.16277 -0.3972,-0.16221 -0.3972,-0.16162 -0.3972,-0.16104 -0.39719,-0.16044 -0.3972,-0.15985 -0.3972,-0.15925 -0.3972,-0.15863 -0.39719,-0.15802 -0.3972,-0.15739 -0.3972,-0.15677 -0.39719,-0.15613 -0.3972,-0.15549 -0.3972,-0.15484 -0.3972,-0.15418 -0.39719,-0.15353 -0.3972,-0.15285 -0.3972,-0.15219 -0.3972,-0.15149 -0.39719,-0.15081 -0.3972,-0.15012 -0.3972,-0.14941 -0.39719,-0.1487 -0.3972,-0.14799 -0.3972,-0.14726 -0.3972,-0.14653 -0.39719,-0.14579 -0.3972,-0.14505 -0.3972,-0.14429 -0.39719,-0.14353 -0.3972,-0.14276 -0.3972,-0.14199 -0.39719,-0.1412 -0.3972,-0.14041 -0.3972,-0.13961 -0.3972,-0.13881 -0.39719,-0.13799 -0.3972,-0.13716 -0.3972,-0.13634 -0.3972,-0.13549 -0.39719,-0.13465 -0.3972,-0.1338 -0.3972,-0.13293 -0.39719,-0.13205 -0.3972,-0.13118 -0.3972,-0.13029 -0.3972,-0.12939 -0.39719,-0.12849 -0.3972,-0.12757 -0.3972,-0.12665 -0.3972,-0.12572 -0.39719,-0.12478 -0.3972,-0.12383 -0.3972,-0.12287 -0.39719,-0.12191 -0.3972,-0.12093 -0.3972,-0.11995 -0.3972,-0.11895 -0.39719,-0.11796 -0.3972,-0.11694 -0.3972,-0.11592 -0.39719,-0.1149 -0.3972,-0.11386 -0.3972,-0.11281 -0.3972,-0.11175 -0.39719,-0.11069 -0.3972,-0.10962 -0.3972,-0.10853 -0.39719,-0.10744 -0.3972,-0.10634 -0.3972,-0.10523 -0.3972,-0.10411 -0.39719,-0.10299 -0.3972,-0.10184 -0.3972,-0.1007 -0.3972,-0.0995 -0.39719,-0.0984 -0.3972,-0.0972 -0.3972,-0.096 -0.39719,-0.0948 -0.3972,-0.0936 -0.3972,-0.0924 -0.3972,-0.0912 -0.39719,-0.09 -0.3972,-0.0887 -0.3972,-0.0875 -0.39719,-0.0862 -0.3972,-0.085 -0.3972,-0.0837 -0.3972,-0.0824 -0.39719,-0.0811 -0.3972,-0.0798 -0.3972,-0.0785 -0.39719,-0.0772 -0.3972,-0.0759 -0.3972,-0.0745 -0.3972,-0.0732 -0.39719,-0.0718 -0.3972,-0.0705 -0.3972,-0.0691 -0.3972,-0.0677 -0.39719,-0.0664 -0.3972,-0.065 -0.3972,-0.0636 -0.39719,-0.0622 -0.3972,-0.0608 -0.3972,-0.0593 -0.3972,-0.0579 -0.39719,-0.0565 -0.3972,-0.055 -0.3972,-0.0536 -0.39719,-0.0522 -0.3972,-0.0507 -0.3972,-0.0492 -0.3972,-0.0478 -0.39719,-0.0463 -0.3972,-0.0448 -0.3972,-0.0433 -0.39719,-0.0418 -0.3972,-0.0403 -0.3972,-0.0388 -0.3972,-0.0373 -0.39719,-0.0358 -0.3972,-0.0342 -0.3972,-0.0327 -0.3972,-0.0312 -0.39719,-0.0297 -0.3972,-0.0281 -0.3972,-0.0266 -0.39719,-0.025 -0.3972,-0.0235 -0.3972,-0.0219 -0.3972,-0.0204 -0.39719,-0.0188 -0.3972,-0.0173 -0.3972,-0.0157 -0.39719,-0.0141 -0.3972,-0.0126 -0.3972,-0.011 -0.3972,-0.009 -0.39719,-0.008 -0.3972,-0.006 -0.3972,-0.005 -0.39719,-0.003 -0.3972,-0.002 h -0.3972 l -0.3972,0.002 -0.39719,0.003 -0.3972,0.005 -0.3972,0.006 -0.3972,0.008 -0.39719,0.009 -0.3972,0.011 -0.3972,0.0126 -0.39719,0.0141 -0.3972,0.0157 -0.3972,0.0173 -0.3972,0.0188 -0.39719,0.0204 -0.3972,0.0219 -0.3972,0.0235 -0.39719,0.025 -0.3972,0.0266 -0.3972,0.0281 -0.3972,0.0297 -0.39719,0.0312 -0.3972,0.0327 -0.3972,0.0342 -0.39719,0.0358 -0.3972,0.0373 -0.3972,0.0388 -0.3972,0.0403 -0.39719,0.0418 -0.3972,0.0433 -0.3972,0.0448 -0.3972,0.0463 -0.39719,0.0478 -0.3972,0.0492 -0.3972,0.0507 -0.39719,0.0522 -0.3972,0.0536 -0.3972,0.055 -0.3972,0.0565 -0.39719,0.0579 -0.3972,0.0593 -0.3972,0.0608 -0.39719,0.0622 -0.3972,0.0636 -0.3972,0.065 -0.3972,0.0664 -0.39719,0.0677 -0.3972,0.0691 -0.3972,0.0705 -0.39719,0.0718 -0.3972,0.0732 -0.3972,0.0745 -0.3972,0.0759 -0.39719,0.0772 -0.3972,0.0785 -0.3972,0.0798 -0.39719,0.0811 -0.3972,0.0824 -0.3972,0.0837 -0.3972,0.085 -0.39719,0.0862 -0.3972,0.0875 -0.3972,0.0887 -0.3972,0.09 -0.39719,0.0912 -0.3972,0.0924 -0.3972,0.0936 -0.39719,0.0948 -0.3972,0.096 -0.3972,0.0972 -0.3972,0.0984 -0.39719,0.0995 -0.3972,0.1007 -0.3972,0.10184 -0.39719,0.10299 -0.3972,0.10411 -0.3972,0.10523 -0.3972,0.10634 -0.39719,0.10744 -0.3972,0.10853 -0.3972,0.10962 -0.39719,0.11069 -0.3972,0.11175 -0.3972,0.11281 -0.3972,0.11386 -0.39719,0.1149 -0.3972,0.11592 -0.3972,0.11694 -0.3972,0.11796 -0.39719,0.11895 -0.3972,0.11995 -0.3972,0.12093 -0.39719,0.12191 -0.3972,0.12287 -0.3972,0.12383 -0.3972,0.12478 -0.39719,0.12572 -0.3972,0.12665 -0.3972,0.12757 -0.39719,0.12849 -0.3972,0.12939 -0.3972,0.13029 -0.3972,0.13118 -0.39719,0.13205 -0.3972,0.13293 -0.3972,0.1338 -0.39719,0.13465 -0.3972,0.13549 -0.3972,0.13634 -0.3972,0.13716 -0.39719,0.13799 -0.3972,0.13881 -0.3972,0.13961 -0.3972,0.14041 -0.39719,0.1412 -0.3972,0.14199 -0.3972,0.14276 -0.39719,0.14353 -0.3972,0.14429 -0.3972,0.14505 -0.3972,0.14579 -0.39719,0.14653 -0.3972,0.14726 -0.3972,0.14799 -0.39719,0.1487 -0.3972,0.14941 -0.3972,0.15012 -0.3972,0.15081 -0.39719,0.15149 -0.3972,0.15219 -0.3972,0.15285 -0.39719,0.15353 -0.3972,0.15418 -0.3972,0.15484 -0.3972,0.15549 -0.39719,0.15613 -0.3972,0.15677 -0.3972,0.15739 -0.3972,0.15802 -0.39719,0.15863 -0.3972,0.15925 -0.3972,0.15985 -0.39719,0.16044 -0.3972,0.16104 -0.3972,0.16162 -0.3972,0.16221 -0.39719,0.16277 -0.3972,0.16335 -0.3972,0.16391 -0.39719,0.16446 -0.3972,0.16502 -0.3972,0.16556 -0.3972,0.1661 -0.39719,0.16664 -0.3972,0.16716 -0.3972,0.16769 -0.39719,0.16821 -0.3972,0.16872 -0.3972,0.16923 -0.3972,0.16973 -0.39719,0.17023 -0.3972,0.17073 -0.3972,0.17121 -0.3972,0.17169 -0.39719,0.17217 -0.3972,0.17265 -0.3972,0.17311 -0.39719,0.17358 -0.3972,0.17404 -0.3972,0.17449 -0.3972,0.17494 -0.39719,0.17539 -0.3972,0.17583 -0.3972,0.17626 -0.39719,0.1767 -0.3972,0.17713 -0.3972,0.17755 -0.3972,0.17796 -0.39719,0.17839 -0.3972,0.17879 -0.3972,0.17921 -0.39719,0.1796 -0.3972,0.18 -0.3972,0.1804 -0.3972,0.18079 -0.39719,0.18118 -0.3972,0.18156 -0.3972,0.18194 -0.39719,0.18232 -0.3972,0.18269 -0.3972,0.18306 -0.3972,0.18342 -0.39719,0.18379 -0.3972,0.18414 -0.3972,0.18449 -0.3972,0.18485 -0.39719,0.1852 -0.3972,0.18554 -0.3972,0.18588 -0.39719,0.18621 -0.3972,0.18656 -0.3972,0.18688 -0.3972,0.18721 -0.39719,0.18753 -0.3972,0.18786 -0.3972,0.18817 -0.39719,0.18849 -0.3972,0.18881 -0.3972,0.18911 -0.3972,0.18942 -0.39719,0.18972 -0.3972,0.19002 -0.3972,0.19032 -0.39719,0.19061 -0.3972,0.19091 -0.3972,0.19119 -0.3972,0.19149 -0.39719,0.19176 -0.3972,0.19205 -0.3972,0.19233 -0.3972,0.1926 -0.39719,0.19287 -0.3972,0.19315 -0.3972,0.19341 -0.39719,0.19368 -0.3972,0.19394 -0.3972,0.19421 -0.3972,0.19446 -0.39719,0.19472 -0.3972,0.19497 -0.3972,0.19522 -0.39719,0.19547 -0.3972,0.19572 -0.3972,0.19597 -0.3972,0.1962 -0.39719,0.19645 -0.3972,0.19668 -0.3972,0.19692 -0.39719,0.19715 -0.3972,0.19738 -0.3972,0.19761 -0.3972,0.19784 -0.39719,0.19807 -0.3972,0.19829 -0.3972,0.1985 -0.3972,0.19873 -0.39719,0.19895 -0.3972,0.19916 -0.3972,0.19937 -0.39719,0.19958 -0.3972,0.1998 -0.3972,0.2 -0.3972,0.20021 -0.39719,0.20041 -0.3972,0.20061 -0.3972,0.20082 -0.39719,0.20101 -0.3972,0.20121 -0.3972,0.2014 -0.3972,0.2016 -0.39719,0.20179 -0.3972,0.20198 -0.3972,0.20217 -0.39719,0.20236 -0.3972,0.20254 -0.3972,0.20272 -0.3972,0.20291 -0.39719,0.20308 -0.3972,0.20327 -0.3972,0.20344 -0.3972,0.20362 -0.39719,0.20379 -0.3972,0.20397 -0.3972,0.20413 -0.39719,0.20431 -0.3972,0.20448 -0.3972,0.20464 -0.39719,0.20481 -0.3972,0.20497 -0.3972,0.20514 -0.3972,0.20529 -0.39719,0.20546 -0.3972,0.20561 -0.3972,0.20578 -0.39719,0.20593 -0.3972,0.20608 -0.3972,0.20624 -0.3972,0.20639 -0.39719,0.20654 -0.3972,0.20669 -0.3972,0.20684 -0.3972,0.20699 -0.39719,0.20713 -0.3972,0.20728 -0.3972,0.20742 -0.3972,0.20757 -0.39719,0.20771 -0.3972,0.20784 -0.3972,0.20799 -0.39719,0.20812 -0.3972,0.20826 -0.3972,0.2084 -0.39719,0.20853 -0.3972,0.20867 -0.3972,0.20879 -0.3972,0.20893 -0.39719,0.20906 -0.3972,0.20919 -0.3972,0.20932 -0.39719,0.20945 -0.3972,0.20957 -0.3972,0.2097 -0.3972,0.20982 -0.39719,0.20994 -0.3972,0.21007 -0.3972,0.21019 -0.3972,0.21031 -0.39719,0.21043 -0.3972,0.21055 -0.3972,0.21066 -0.3972,0.21079 -0.39719,0.21089 -0.3972,0.21102 -0.3972,0.21113 -0.39719,0.21124 -0.3972,0.21135 -0.3972,0.21147 -0.39719,0.21158 -0.3972,0.21168 -0.3972,0.2118 -0.3972,0.2119 -0.39719,0.21201 -0.3972,0.21212 -0.3972,0.21223 -0.3972,0.21232 -0.39719,0.21244 -0.3972,0.21253 -0.3972,0.21264 -0.39719,0.21274 -0.3972,0.21285 -0.3972,0.21294 -0.3972,0.21304 -0.39719,0.21314 -0.3972,0.21325 -0.397197,0.21333 -0.397197,0.21344 -0.397198,0.21353 -0.397197,0.21362 -0.397197,0.21372 -0.397197,0.21382 -0.397197,0.2139 -0.397198,0.214 -0.397197,0.2141 -0.397197,0.21418 -0.397197,0.21427 -0.397197,0.21437 -0.397198,0.21445 -0.397197,0.21454 -0.397197,0.21463 -0.397197,0.21472 -0.397197,0.2148 -0.397198,0.21489 -0.397197,0.21498 -0.397197,0.21506 -0.397197,0.21514 -0.397197,0.21523 -0.397198,0.21531 -0.397197,0.2154 -0.397197,0.21547 -0.397197,0.21556 -0.397197,0.21564 -0.397198,0.21572 -0.397197,0.2158 -0.397197,0.21588 -0.397197,0.21595 -0.397197,0.21604 -0.397198,0.21611 -0.397197,0.21619 -0.397197,0.21626 -0.397197,0.21635 -0.397197,0.21641 -0.397198,0.21649 -0.397197,0.21657 -0.397197,0.21664 -0.397197,0.21671 -0.397197,0.21679 -0.397198,0.21686 -0.397197,0.21693 -0.397197,0.217 -0.397197,0.21708 -0.397197,0.21714 -0.397198,0.21721 -0.397197,0.21729 -0.397197,0.21735 -0.397197,0.21742 -0.397197,0.21749 -0.397197,0.21755 -0.397198,0.21763 -0.397197,0.21769 -0.397197,0.21775 -0.397197,0.21783 -0.397197,0.21789 -0.397198,0.21795 -0.397197,0.21802 -0.397197,0.21808 -0.397197,0.21814 -0.397197,0.21821 -0.397198,0.21828 -0.397197,0.21833 -0.397197,0.2184 -0.397197,0.21846 -0.397197,0.21851 -0.397198,0.21858 -0.397197,0.21865 -0.397197,0.2187 -0.397197,0.21876 -0.397197,0.21882 -0.397198,0.21888 -0.397197,0.21894 -0.397197,0.21899 -0.397197,0.21906 -0.397197,0.21911 -0.397198,0.21917 -0.397197,0.21922 -0.397197,0.21928 -0.397197,0.21934 -0.397197,0.2194 -0.397198,0.21944 -0.397197,0.21951 -0.397197,0.21956 -0.397197,0.21961 -0.397197,0.21967 -0.397198,0.21972 -0.397197,0.21977 -0.397197,0.21983 -0.397197,0.21988 -0.397197,0.21993 -0.397198,0.21998 -0.397197,0.22004 -0.397197,0.22009 -0.397197,0.22014 -0.397197,0.22018 -0.397198,0.22024 -0.397197,0.22029 -0.397197,0.22034 -0.397197,0.22039 -0.397197,0.22044 -0.397198,0.22049 -0.397197,0.22053 -0.397197,0.22058 -0.397197,0.22064 -0.397197,0.22068 -0.397198,0.22072 -0.397197,0.22078 -0.397197,0.22082 -0.397197,0.22087 -0.397197,0.22091 -0.397198,0.22096 -0.397197,0.22101 -0.397197,0.22105 -0.397197,0.2211 -0.397197,0.22114 -0.397198,0.22118 -0.397197,0.22123 -0.397197,0.22128 -0.397197,0.22132 -0.397197,0.22136 -0.397197,0.22141 -0.397198,0.22145 -0.397197,0.22149 -0.397197,0.22153 -0.397197,0.22158 -0.397197,0.22162 -0.397198,0.22166 -0.397197,0.22171 -0.397197,0.22174 -0.397197,0.22179 -0.397197,0.22182 -0.397198,0.22187 -0.397197,0.22191 -0.397197,0.22195 -0.397197,0.22199 -0.397197,0.22202 -0.397198,0.22207 -0.397197,0.22211 -0.397197,0.22214 -0.397197,0.22219 -0.397197,0.22222 -0.397198,0.22227 -0.397197,0.2223 -0.397197,0.22234 -0.397197,0.22237 -0.397197,0.22242 -0.397198,0.22245 -0.397197,0.22249 -0.397197,0.22252 -0.397197,0.22257 -0.397197,0.2226 -0.397198,0.22263 -0.397197,0.22267 z"
             id="path3007"
             style="fill:#e28394;fill-opacity:1;fill-rule:nonzero;stroke:url(#linearGradient4737);stroke-width:1;stroke-linecap:butt;stroke-linejoin:round;stroke-miterlimit:10;stroke-dasharray:none;stroke-opacity:1" />
        </g>
      </g>
      <rect
         y="167.15416"
         x="109.00832"
         height="13.229168"
         width="50.27084"
         id="rect3731"
         style="opacity:1;fill:#191b0e;fill-opacity:1;stroke:none;stroke-width:2.08483768;stroke-linejoin:round;stroke-miterlimit:4;stroke-dasharray:none;stroke-dashoffset:0;stroke-opacity:1" />
    </g>
    <text
       id="text4897"
       y="160.99879"
       x="257.44431"
       style="font-style:normal;font-weight:normal;font-size:7.29748106px;line-height:1.25;font-family:sans-serif;letter-spacing:0px;word-spacing:0px;fill:#ffffff;fill-opacity:1;stroke:none;stroke-width:0.18243702"
       xml:space="preserve"
       transform="scale(1.0151903,0.98503699)"><tspan
         style="fill:#ffffff;fill-opacity:1;stroke-width:0.18243702"
         y="160.99879"
         x="257.44431"
         id="tspan4895"
         sodipodi:role="line">L</tspan><tspan
         id="tspan4899"
         style="fill:#ffffff;fill-opacity:1;stroke-width:0.18243702"
         y="170.12065"
         x="257.44431"
         sodipodi:role="line">A</tspan><tspan
         id="tspan4901"
         style="fill:#ffffff;fill-opacity:1;stroke-width:0.18243702"
         y="179.24249"
         x="257.44431"
         sodipodi:role="line">S</tspan><tspan
         id="tspan4903"
         style="fill:#ffffff;fill-opacity:1;stroke-width:0.18243702"
         y="188.36435"
         x="257.44431"
         sodipodi:role="line">E</tspan><tspan
         id="tspan4905"
         style="fill:#ffffff;fill-opacity:1;stroke-width:0.18243702"
         y="197.48621"
         x="257.44431"
         sodipodi:role="line">R</tspan></text>
  </g>
</svg>
